<svg width="68" height="66" viewBox="0 0 68 66" fill="none" xmlns="http://www.w3.org/2000/svg">
<path d="M34 48.6667C32.8194 48.6667 31.8291 48.2667 31.0291 47.4667C30.2291 46.6667 29.8305 45.6778 29.8333 44.5V14.7083L22.0208 22.5208C21.1875 23.3542 20.2152 23.7708 19.1041 23.7708C17.993 23.7708 16.9861 23.3194 16.0833 22.4167C15.25 21.5833 14.8514 20.5944 14.8875 19.45C14.9236 18.3056 15.3222 17.35 16.0833 16.5833L31.0833 1.58333C31.5 1.16667 31.9514 0.872221 32.4375 0.699999C32.9236 0.527777 33.4444 0.440278 34 0.4375C34.5555 0.4375 35.0764 0.524999 35.5625 0.699999C36.0486 0.874999 36.5 1.16944 36.9166 1.58333L51.9166 16.5833C52.75 17.4167 53.15 18.4069 53.1166 19.5542C53.0833 20.7014 52.6833 21.6556 51.9166 22.4167C51.0833 23.25 50.093 23.6847 48.9458 23.7208C47.7986 23.7569 46.8097 23.3569 45.9791 22.5208L38.1666 14.7083V44.5C38.1666 45.6806 37.7666 46.6708 36.9666 47.4708C36.1666 48.2708 35.1777 48.6694 34 48.6667ZM8.99997 65.3333C6.7083 65.3333 4.7458 64.5167 3.11247 62.8833C1.47913 61.25 0.663855 59.2889 0.666633 57V48.6667C0.666633 47.4861 1.06663 46.4958 1.86663 45.6958C2.66663 44.8958 3.65552 44.4972 4.8333 44.5C6.01385 44.5 7.00413 44.9 7.80413 45.7C8.60413 46.5 9.00274 47.4889 8.99997 48.6667V57H59V48.6667C59 47.4861 59.4 46.4958 60.2 45.6958C61 44.8958 61.9889 44.4972 63.1666 44.5C64.3472 44.5 65.3375 44.9 66.1375 45.7C66.9375 46.5 67.3361 47.4889 67.3333 48.6667V57C67.3333 59.2917 66.5166 61.2542 64.8833 62.8875C63.25 64.5208 61.2889 65.3361 59 65.3333H8.99997Z" fill="white"/>
</svg>
